<svg width="50" height="50" viewBox="0 0 50 50" fill="none" xmlns="http://www.w3.org/2000/svg">
<circle cx="25" cy="25" r="25" fill="#008000" fill-opacity="0.7"/>
<path d="M22.1468 33.4116C21.964 33.411 21.7832 33.3721 21.6158 33.2975C21.4483 33.2228 21.2978 33.1139 21.1734 32.9776L14.6934 25.966C14.4512 25.7034 14.3215 25.3537 14.3327 24.9939C14.344 24.634 14.4953 24.2934 14.7534 24.047C15.0116 23.8006 15.3554 23.6686 15.7092 23.68C16.063 23.6915 16.3979 23.8454 16.6401 24.108L22.1334 30.0617L33.3468 17.5847C33.4606 17.4405 33.6021 17.3216 33.7628 17.2351C33.9234 17.1487 34.0997 17.0965 34.2809 17.0819C34.4621 17.0673 34.6443 17.0905 34.8163 17.1501C34.9883 17.2097 35.1466 17.3044 35.2813 17.4285C35.416 17.5526 35.5244 17.7033 35.5997 17.8716C35.6751 18.0398 35.7158 18.2219 35.7195 18.4067C35.7231 18.5915 35.6895 18.7752 35.6209 18.9463C35.5522 19.1175 35.4499 19.2725 35.3201 19.402L23.1334 32.964C23.0103 33.1028 22.8603 33.2143 22.6928 33.2913C22.5253 33.3683 22.3439 33.4093 22.1601 33.4116H22.1468Z" fill="white"/>
</svg>
