<svg width="81" height="58" viewBox="0 0 81 58" fill="none" xmlns="http://www.w3.org/2000/svg">
<path d="M68.505 9.58008H34.975C33.0695 9.58008 31.2419 10.3371 29.8945 11.6845C28.547 13.032 27.79 14.8595 27.79 16.7651V40.7151C27.79 42.6207 28.547 44.4482 29.8945 45.7956C31.2419 47.1431 33.0695 47.9001 34.975 47.9001H68.505C70.4106 47.9001 72.2382 47.1431 73.5856 45.7956C74.9331 44.4482 75.69 42.6207 75.69 40.7151V16.7651C75.69 14.8595 74.9331 13.032 73.5856 11.6845C72.2382 10.3371 70.4106 9.58008 68.505 9.58008ZM66.9004 14.3701L51.74 25.7463L36.5797 14.3701H66.9004ZM68.505 43.1101H34.975C34.3398 43.1101 33.7307 42.8577 33.2815 42.4086C32.8324 41.9595 32.58 41.3503 32.58 40.7151V17.3638L50.303 30.6561C50.7176 30.967 51.2218 31.1351 51.74 31.1351C52.2582 31.1351 52.7625 30.967 53.177 30.6561L70.9 17.3638V40.7151C70.9 41.3503 70.6477 41.9595 70.1986 42.4086C69.7494 42.8577 69.1402 43.1101 68.505 43.1101Z" fill="#231F20"/>
<path d="M2 20H23" stroke="black" stroke-width="3" stroke-linecap="round"/>
<path d="M3 38H24" stroke="black" stroke-width="3" stroke-linecap="round"/>
<rect x="9" y="26" width="29" height="6" fill="white"/>
<path d="M13 29H34" stroke="black" stroke-width="3" stroke-linecap="round"/>
</svg>
