<svg width="80" height="39" viewBox="0 0 80 39" fill="none" xmlns="http://www.w3.org/2000/svg">
<path d="M6.46598 38.3378C6.1637 38.3378 5.86253 38.2456 5.54134 38.0592L0.924699 35.3788C0.282738 35.0058 0 34.5136 0 33.7687V4.61959C0 3.87467 0.282764 3.38247 0.924699 3.00948L5.77396 0.194037C5.97651 0.0716707 6.21337 0.00119749 6.46657 0.00119749C7.20928 0.00119749 7.81168 0.606246 7.81168 1.35223C7.81168 1.86082 7.5316 2.30378 7.11807 2.53425L2.68975 5.10491V33.2818L6.46662 35.4747L15.3649 30.3085V25.1407C15.3649 24.3947 15.9673 23.7897 16.7101 23.7897C17.4528 23.7897 18.0552 24.3947 18.0552 25.1407V30.7944C18.0552 31.5393 17.7724 32.0315 17.1299 32.3992L7.39184 38.0581C7.07061 38.2446 6.76829 38.3378 6.46598 38.3378ZM16.7099 38.3871C15.9672 38.3871 15.3643 37.7815 15.3643 37.0355C15.3643 36.5269 15.6444 36.084 16.0579 35.8535L20.4862 33.2829V22.1678C20.4862 21.4219 21.0886 20.8168 21.8313 20.8168C22.5741 20.8168 23.1765 21.4219 23.1765 22.1678V33.7687C23.1765 34.5136 22.8937 35.0058 22.2518 35.3788L17.4025 38.1942C17.1999 38.3166 16.9631 38.3871 16.7099 38.3871ZM6.46124 32.4394C5.99654 32.4394 5.54377 32.1973 5.29484 31.7639C5.17245 31.551 5.11444 31.3189 5.11444 31.0895L5.12077 7.59354C5.12077 6.84862 5.40354 6.35642 6.04547 5.98343L15.7836 0.329771C16.1048 0.143302 16.4071 0.0500674 16.7094 0.0500674C17.0117 0.0500674 17.3139 0.143305 17.6352 0.329771L22.2518 3.01011C22.8943 3.3831 23.177 3.8753 23.177 4.62022V13.2477C23.177 13.9937 22.5746 14.5988 21.8319 14.5988C21.0892 14.5988 20.4868 13.9937 20.4868 13.2477V5.10659L16.71 2.91368L7.81163 8.07992V28.748L10.2434 27.3361V10.5674C10.2434 9.82248 10.5267 9.33081 11.1686 8.95729L16.0316 6.13019C16.2436 6.00726 16.4747 5.949 16.703 5.949C17.1677 5.949 17.6198 6.19113 17.8688 6.62451C17.9912 6.83747 18.0492 7.06953 18.0492 7.29891L18.0555 16.221C18.0555 16.967 17.4531 17.572 16.7104 17.572C15.9677 17.572 15.3653 16.967 15.3653 16.221V9.64176L12.9336 11.0537V27.8224C12.9336 28.5673 12.6508 29.06 12.0083 29.4325L7.1327 32.2591C6.92067 32.382 6.68962 32.4394 6.46124 32.4394ZM32.3133 38.3378C32.011 38.3378 31.7098 38.2456 31.3886 38.0592L26.772 35.3788C26.13 35.0058 25.8473 34.5136 25.8473 33.7687V4.61959C25.8473 3.87467 26.13 3.38247 26.772 3.00948L31.6212 0.194037C31.8238 0.0716707 32.0606 0.00119749 32.3138 0.00119749C33.0566 0.00119749 33.659 0.606246 33.659 1.35223C33.659 1.86082 33.3789 2.30378 32.9653 2.53425L28.537 5.10491V33.2818L32.3139 35.4747L41.2122 30.3085V25.1407C41.2122 24.3947 41.8146 23.7897 42.5573 23.7897C43.3 23.7897 43.9024 24.3947 43.9024 25.1407V30.7944C43.9024 31.5393 43.6197 32.0315 42.9772 32.3992L33.2391 38.0581C32.9179 38.2446 32.6156 38.3378 32.3133 38.3378ZM42.5572 38.3871C41.8145 38.3871 41.2116 37.7815 41.2116 37.0355C41.2116 36.5269 41.4917 36.084 41.9052 35.8535L46.3335 33.2829V22.1678C46.3335 21.4219 46.9359 20.8168 47.6786 20.8168C48.4213 20.8168 49.0237 21.4219 49.0237 22.1678V33.7687C49.0237 34.5136 48.741 35.0058 48.099 35.3788L43.2498 38.1942C43.0472 38.3166 42.8104 38.3871 42.5572 38.3871ZM32.3085 32.4394C31.8438 32.4394 31.391 32.1973 31.1421 31.7639C31.0197 31.551 30.9617 31.3189 30.9617 31.0895L30.968 7.59354C30.968 6.84862 31.2508 6.35642 31.8927 5.98343L41.6308 0.329771C41.9521 0.143302 42.2543 0.0500674 42.5566 0.0500674C42.859 0.0500674 43.1612 0.143305 43.4825 0.329771L48.0991 3.01011C48.7416 3.3831 49.0243 3.8753 49.0243 4.62022V13.2477C49.0243 13.9937 48.4219 14.5988 47.6792 14.5988C46.9365 14.5988 46.3341 13.9937 46.3341 13.2477V5.10659L42.5572 2.91368L33.6589 8.07992V28.748L36.0907 27.3361V10.5674C36.0907 9.82248 36.3739 9.33081 37.0159 8.95729L41.8789 6.13019C42.0909 6.00726 42.3219 5.949 42.5503 5.949C43.015 5.949 43.4671 6.19113 43.7161 6.62451C43.8385 6.83747 43.8965 7.06953 43.8965 7.29891L43.9028 16.221C43.9028 16.967 43.3004 17.572 42.5577 17.572C41.815 17.572 41.2126 16.967 41.2126 16.221V9.64176L38.7808 11.0537V27.8224C38.7808 28.5673 38.4981 29.06 37.8556 29.4325L32.98 32.2591C32.7679 32.382 32.5369 32.4394 32.3085 32.4394ZM53.0375 14.5987C52.1502 14.5987 51.6919 13.8134 51.6919 13.2401L51.6982 7.59172C51.6992 6.8468 51.9814 6.3546 52.6234 5.98161L62.5946 0.192839C62.7972 0.0704732 63.034 0 63.2872 0C64.0299 0 64.6323 0.60505 64.6323 1.35103C64.6323 1.85963 64.3522 2.30258 63.9387 2.53305L54.3889 8.07757V10.9036L72.606 0.327426C72.9272 0.140957 73.2295 0.0477229 73.5318 0.0477229C73.8341 0.0477229 74.1364 0.14096 74.4576 0.327426L79.0742 3.00776C79.7167 3.38075 80.0005 3.87295 80 4.61787L79.9942 10.2721C79.9942 11.1632 79.2172 11.6242 78.6464 11.6242C78.418 11.6242 78.187 11.5659 77.9755 11.443L73.5324 8.85852L69.103 11.4302C68.901 11.5526 68.6641 11.6231 68.4109 11.6231C67.6682 11.6231 67.0658 11.018 67.0658 10.2721C67.0658 9.76346 67.3459 9.3205 67.7594 9.09003L72.6071 6.27565C72.9283 6.08919 73.2306 5.99595 73.5329 5.99595C73.8352 5.99595 74.1375 6.08919 74.4587 6.27565L77.3098 7.9308V5.10476L73.5329 2.91185L53.7136 14.4168C53.5084 14.5355 53.2744 14.5987 53.0375 14.5987ZM63.2894 38.3854C63.0362 38.3854 62.7989 38.3155 62.5968 38.1932L57.7476 35.3777C57.1056 35.0047 56.8228 34.5125 56.8228 33.7676V18.5606L53.7386 20.3514C53.5366 20.4737 53.2997 20.5442 53.0465 20.5442C52.3038 20.5442 51.7014 19.9392 51.7014 19.1932C51.7014 18.6846 51.9857 18.2491 52.395 18.0112L57.4885 15.0516C57.6937 14.9329 57.9268 14.8698 58.1637 14.8698C58.8895 14.8698 59.5067 15.4685 59.5067 16.2203L59.5125 33.2817L63.9408 35.8524C64.3544 36.0828 64.6344 36.5258 64.6344 37.0344C64.6344 37.7804 64.0321 38.3854 63.2894 38.3854ZM63.2888 32.4389C62.5461 32.4389 61.9437 31.8338 61.9437 31.0879V13.2463C61.9437 12.5003 62.5461 11.8953 63.2888 11.8953C64.0315 11.8953 64.6339 12.5003 64.6339 13.2463V31.0879C64.6339 31.8338 64.0315 32.4389 63.2888 32.4389ZM68.4111 35.4127C67.6684 35.4127 67.066 34.8082 67.066 34.0622V16.5147C67.066 15.7698 67.3487 15.2776 67.9912 14.9046L72.8405 12.0892C73.043 11.9668 73.2799 11.8964 73.5331 11.8964C74.2758 11.8964 74.8782 12.5014 74.8782 13.2474C74.8782 13.756 74.5981 14.1989 74.1846 14.4294L69.7562 17.0001V34.0628C69.7562 34.8088 69.1538 35.4127 68.4111 35.4127Z" fill="#0DB1E3"/>
</svg>
