<?xml version="1.0" encoding="utf-8"?>
<svg xmlns="http://www.w3.org/2000/svg">
<symbol id="airport_shuttle" viewBox="0 -960 960 960">
<path d="M240-200q-50 0-85-35t-35-85H40v-360q0-33 23.5-56.5T120-760h560l240 240v200h-80q0 50-35 85t-85 35q-50 0-85-35t-35-85H360q0 50-35 85t-85 35Zm360-360h160L640-680h-40v120Zm-240 0h160v-120H360v120Zm-240 0h160v-120H120v120Zm120 290q21 0 35.5-14.5T290-320q0-21-14.5-35.5T240-370q-21 0-35.5 14.5T190-320q0 21 14.5 35.5T240-270Zm480 0q21 0 35.5-14.5T770-320q0-21-14.5-35.5T720-370q-21 0-35.5 14.5T670-320q0 21 14.5 35.5T720-270ZM120-400h32q17-18 39-29t49-11q27 0 49 11t39 29h304q17-18 39-29t49-11q27 0 49 11t39 29h32v-80H120v80Zm720-80H120h720Z"/>
</symbol>
<symbol id="parking_sign" viewBox="0 -960 960 960">
<path d="M600-520h60v-80h80q25 0 42.5-17.5T800-660v-40q0-25-17.5-42.5T740-760H600v240Zm60-140v-40h80v40h-80ZM520-400q-33 0-56.5-23.5T440-480v-320q0-33 23.5-56.5T520-880h320q33 0 56.5 23.5T920-800v320q0 33-23.5 56.5T840-400H720v280h-80v-280H520Zm0-80h320v-320H520v320Zm160-160ZM320-120q-17 0-28.5-11.5T280-160v-40H80v-80h240v-200H80v-80h208l-42-120H80v-80h180q19 0 34.5 11t21.5 29l84 240v320q0 17-11.5 28.5T360-120h-40ZM220-320q25 0 42.5-17.5T280-380q0-25-17.5-42.5T220-440q-25 0-42.5 17.5T160-380q0 25 17.5 42.5T220-320Z"/>
</symbol>
</svg>
