<?xml version="1.0" encoding="utf-8"?>
<svg xmlns="http://www.w3.org/2000/svg">
<symbol id="person_2" viewBox="0 -960 960 960">
<path d="M391-480q-36 0-60-27t-19-63l13-98q8-57 52-94.5T480-800q59 0 103 37.5t52 94.5l13 98q5 36-19 63t-60 27H391Zm0-80h178l-13-96q-4-28-25.5-46T480-720q-29 0-50.5 18T404-656l-13 96Zm89 0ZM160-160v-112q0-34 17.5-62.5T224-378q62-31 126-46.5T480-440q66 0 130 15.5T736-378q29 15 46.5 43.5T800-272v112H160Zm80-80h480v-32q0-11-5.5-20T700-306q-54-27-109-40.5T480-360q-56 0-111 13.5T260-306q-9 5-14.5 14t-5.5 20v32Zm240 0Z"/>
</symbol>
<symbol id="parking_sign" viewBox="0 -960 960 960">
<path d="M600-520h60v-80h80q25 0 42.5-17.5T800-660v-40q0-25-17.5-42.5T740-760H600v240Zm60-140v-40h80v40h-80ZM520-400q-33 0-56.5-23.5T440-480v-320q0-33 23.5-56.5T520-880h320q33 0 56.5 23.5T920-800v320q0 33-23.5 56.5T840-400H720v280h-80v-280H520Zm0-80h320v-320H520v320Zm160-160ZM320-120q-17 0-28.5-11.5T280-160v-40H80v-80h240v-200H80v-80h208l-42-120H80v-80h180q19 0 34.5 11t21.5 29l84 240v320q0 17-11.5 28.5T360-120h-40ZM220-320q25 0 42.5-17.5T280-380q0-25-17.5-42.5T220-440q-25 0-42.5 17.5T160-380q0 25 17.5 42.5T220-320Z"/>
</symbol>
</svg>
